<svg version="1.1" id="Layer_1" xmlns="http://www.w3.org/2000/svg" xmlns:xlink="http://www.w3.org/1999/xlink" x="0px" y="0px"
	 width="100%" viewBox="0 0 1280 1280" enable-background="new 0 0 1280 1280" xml:space="preserve">
<path fill="#000000" opacity="1.000000" stroke="none" 
	d="
M586.000000,1281.000000 
	C390.666656,1281.000000 195.833328,1281.000000 1.000000,1281.000000 
	C1.000000,854.333313 1.000000,427.666656 1.000000,1.000000 
	C427.666656,1.000000 854.333313,1.000000 1281.000000,1.000000 
	C1281.000000,427.666656 1281.000000,854.333313 1281.000000,1281.000000 
	C1049.500000,1281.000000 818.000000,1281.000000 586.000000,1281.000000 
M717.482117,711.373657 
	C717.453918,708.208862 717.557617,705.035889 717.361023,701.881592 
	C717.159912,698.653381 718.422852,697.423401 721.683289,697.479187 
	C728.678040,697.598938 735.679565,697.324585 742.674438,697.440430 
	C746.875000,697.509888 748.749268,696.003906 748.532471,691.562378 
	C748.086243,682.422302 747.741394,673.264954 747.773560,664.116150 
	C747.884888,632.471924 748.098755,600.827454 748.427307,569.184692 
	C748.625854,550.049072 749.156433,530.916931 749.369751,511.781372 
	C749.386475,510.283844 748.078125,508.771515 747.678833,506.528351 
	C748.912964,504.297302 750.147095,502.066284 751.381287,499.835266 
	C751.682861,499.936554 751.984497,500.037842 752.286072,500.139160 
	C752.286072,526.238525 752.286072,552.337952 752.286072,578.962708 
	C754.467041,578.962708 756.251587,578.951782 758.036011,578.964478 
	C771.985657,579.063721 785.935242,579.167542 799.805969,580.003967 
	C799.531433,582.932556 797.542664,586.343811 803.027466,586.980591 
	C808.385925,587.602844 808.614746,584.622253 808.587585,580.742493 
	C808.531616,572.746216 808.784119,564.745972 808.621826,556.753174 
	C808.546143,553.026672 809.914490,551.779297 813.587036,551.884766 
	C820.911255,552.095276 828.251282,551.775208 835.573975,552.011108 
	C839.173035,552.127075 840.578735,551.179382 840.573181,547.313232 
	C840.473511,478.504822 840.467346,409.696198 840.566895,340.887787 
	C840.572144,337.236603 839.311462,336.335358 835.943787,336.421326 
	C828.284973,336.616730 820.616394,336.409576 812.955505,336.555969 
	C809.810242,336.616028 808.483337,335.606964 808.488220,332.276459 
	C808.500244,324.120392 808.106323,315.964233 808.072449,307.807312 
	C808.060730,304.989197 807.973328,303.038971 804.249817,303.020569 
	C800.582825,303.002472 799.183655,304.231415 799.264404,307.934845 
	C799.434998,315.761414 799.124878,323.600067 799.367004,331.422760 
	C799.486877,335.295624 798.364441,336.731537 794.312256,336.573364 
	C786.827148,336.281189 779.320190,336.601013 771.825195,336.485199 
	C768.299438,336.430756 766.774292,337.570862 766.881653,341.385132 
	C767.106689,349.375031 766.955688,357.377869 766.849792,365.373932 
	C766.770996,371.319214 766.520325,377.262207 765.606995,383.883270 
	C763.789062,383.917053 761.916870,384.249023 760.163025,383.930267 
	C754.238342,382.853607 751.252502,385.620331 748.987183,390.871246 
	C744.478394,401.322388 739.394043,411.525208 733.731812,421.558411 
	C729.904480,421.508881 726.067810,421.273376 722.252441,421.463531 
	C718.632507,421.643921 717.156433,420.412628 717.293091,416.627960 
	C717.533203,409.976074 717.395325,403.309570 717.364258,396.649445 
	C717.352539,394.149261 717.628967,391.285583 713.811768,391.402161 
	C710.349487,391.507874 708.253174,392.870697 708.375671,396.884399 
	C708.573669,403.371796 708.265259,409.874329 708.449707,416.362518 
	C708.561279,420.290436 706.966248,421.683594 703.129150,421.588684 
	C696.307068,421.419830 689.476990,421.564545 682.650330,421.597839 
	C679.034119,421.615479 677.296936,423.157257 677.281250,427.077637 
	C677.134827,463.697571 676.836731,500.316864 676.694275,536.936829 
	C676.687988,538.549988 677.761658,540.167358 678.134521,542.528809 
	C673.451599,552.759216 668.768616,562.989624 663.508423,574.481201 
	C656.172180,558.565491 649.398438,543.870300 643.452454,528.981567 
	C643.904968,527.000549 644.760254,525.017639 644.750610,523.038879 
	C644.548584,481.777069 644.250366,440.515717 643.960327,399.254364 
	C643.950134,397.803894 643.829163,396.354218 643.731995,394.322266 
	C634.315674,394.322266 625.208313,394.217957 616.105652,394.378632 
	C612.904785,394.435150 611.716797,393.462677 611.774597,390.133240 
	C611.927612,381.317047 611.590698,372.491577 611.786621,363.677307 
	C611.864197,360.188507 610.325378,359.451019 607.353455,359.344269 
	C604.246582,359.232697 602.741821,360.143524 602.889648,363.558716 
	C603.098145,368.375214 602.918335,373.208344 602.913147,378.034363 
	C602.907532,383.298584 602.911865,388.562805 602.911865,394.534729 
	C593.197571,394.534729 584.245056,394.534729 574.781677,393.938690 
	C573.564209,391.499817 572.587708,388.895905 571.062073,386.668091 
	C569.506287,384.396362 567.432129,382.406311 563.903748,384.693115 
	C562.129517,384.786377 560.355286,384.879639 557.949829,384.104645 
	C548.961792,384.084106 539.973694,384.063599 530.349243,383.831573 
	C528.587097,383.945496 526.824951,384.059418 524.222900,384.022858 
	C523.494568,385.551178 522.154480,387.071014 522.133179,388.609161 
	C521.932983,403.059906 521.958130,417.513824 521.013916,431.734619 
	C516.521118,431.666687 512.023926,431.447418 507.536865,431.577972 
	C503.842804,431.685516 502.486847,430.120239 502.582733,426.518005 
	C502.746643,420.360291 502.694519,414.195007 502.631256,408.033936 
	C502.607056,405.676544 503.416382,402.606842 499.475006,402.508789 
	C495.806854,402.417542 495.271240,404.786438 495.309692,407.839996 
	C495.385132,413.833221 494.962128,419.842224 495.251251,425.820251 
	C495.479980,430.549255 493.609436,431.882477 489.116455,431.736176 
	C482.642212,431.525482 476.147247,431.909637 469.662384,432.086395 
	C466.400848,432.175293 465.106750,433.774109 465.109314,437.172363 
	C465.117889,448.490021 464.706818,459.807800 464.694458,471.125793 
	C464.631622,528.748047 464.603790,586.370422 464.653900,643.992676 
	C464.668671,660.972168 465.043091,677.951172 465.098206,694.930908 
	C465.109375,698.374084 466.409210,699.800293 469.787811,699.728027 
	C473.782501,699.642517 477.781036,699.732971 481.777893,699.749084 
	C495.030884,699.802368 495.030884,699.802734 493.613770,713.417419 
	C481.173340,713.417419 468.732910,713.417419 456.035400,713.417419 
	C456.035400,734.654480 456.035400,755.396973 456.035400,776.300354 
	C472.359924,776.300354 488.406647,776.300354 504.401825,776.300354 
	C504.401825,772.332092 504.401825,768.768921 504.401825,764.572388 
	C492.845062,764.572388 481.634125,764.572388 470.547852,764.572388 
	C470.547852,759.495178 470.547852,755.068604 470.547852,749.958679 
	C480.348114,749.958679 489.875580,749.958679 499.273499,749.958679 
	C499.273499,745.858093 499.273499,742.472351 499.273499,738.668823 
	C489.445831,738.668823 480.037079,738.668823 470.443787,738.668823 
	C470.443787,733.979736 470.443787,729.731934 470.443787,725.064331 
	C478.792511,725.064331 486.906799,725.064331 495.259277,725.699158 
	C497.180817,726.548096 499.547852,728.505615 500.908630,727.958862 
	C502.525848,727.309021 504.216614,724.513794 504.231384,722.635315 
	C504.278137,716.703247 503.879761,710.717773 503.017822,704.846313 
	C502.450989,700.985168 503.797211,700.270203 507.187164,700.255737 
	C514.486145,700.224548 521.782898,699.765198 529.082458,699.701599 
	C532.239746,699.674072 533.604797,698.614685 533.458313,695.315735 
	C533.230103,690.174500 533.365967,685.018250 533.260742,679.870117 
	C532.996582,666.949097 532.683777,654.029114 533.396240,640.973083 
	C543.376099,640.956848 553.356262,640.978943 563.335815,640.911682 
	C570.795410,640.861328 570.805786,640.810120 570.919434,633.097168 
	C571.034546,625.282715 571.125427,617.467834 572.127869,609.778076 
	C580.460144,609.797119 588.804016,610.085938 597.120300,609.731140 
	C601.879211,609.528076 603.136353,611.242554 602.949768,615.737671 
	C602.632202,623.390503 603.046753,631.072388 602.785522,638.729553 
	C602.659729,642.415833 603.816650,643.722656 607.535034,643.801636 
	C611.659973,643.889221 612.083862,641.844849 612.004333,638.505859 
	C611.813843,630.510620 612.022888,622.505981 611.837891,614.510498 
	C611.760742,611.175720 612.668335,609.660645 616.308105,609.816406 
	C621.113770,610.022095 625.941223,609.719238 631.230225,610.227295 
	C634.047424,615.662292 636.977905,621.042603 639.637573,626.553650 
	C641.131836,629.649902 643.273499,630.807800 646.688293,630.773376 
	C656.962708,630.669678 667.239746,630.834229 677.410828,631.841553 
	C677.397156,651.979492 677.427979,672.117615 677.331482,692.255188 
	C677.312744,696.171387 679.050049,697.570312 682.793640,697.514648 
	C689.782166,697.410706 696.777405,697.668579 703.763000,697.496826 
	C707.160645,697.413330 708.597534,698.419067 708.408813,702.016846 
	C708.191956,706.153198 708.492126,710.316650 707.854858,714.838806 
	C702.861938,718.830139 696.854797,722.046753 693.089417,726.975830 
	C685.481506,736.934753 685.387024,748.478210 690.756226,759.530762 
	C696.809570,771.991333 707.753845,777.165894 721.226501,777.579224 
	C736.508728,778.048035 749.630249,769.590820 754.524170,756.147156 
	C759.321106,742.969727 755.090637,728.176147 743.845825,719.408081 
	C736.082275,713.354431 726.942505,712.113342 717.482117,711.373657 
M386.537445,750.831909 
	C385.343048,750.185486 383.655975,749.846619 383.030731,748.844971 
	C377.042542,739.250977 371.259338,729.529419 365.365417,719.876160 
	C360.721313,712.269897 359.218445,711.743958 349.871521,714.206238 
	C349.871521,734.900452 349.871521,755.629944 349.871521,776.766663 
	C354.474182,776.530884 358.725311,776.313049 363.679871,776.059265 
	C363.679871,764.584045 363.679871,753.512207 363.679871,741.114441 
	C365.039703,742.983398 365.549561,743.599915 365.968536,744.272949 
	C370.625580,751.753906 375.173798,759.304688 379.948883,766.709290 
	C383.086609,771.574768 386.179108,771.682434 389.717285,767.126160 
	C391.543701,764.774231 392.977570,762.111938 394.531738,759.555176 
	C398.350494,753.273010 402.136108,746.970703 405.935089,740.676514 
	C406.335297,740.819885 406.735535,740.963257 407.135742,741.106628 
	C407.135742,752.777832 407.135742,764.449036 407.135742,776.242065 
	C411.893341,776.242065 416.142334,776.242065 420.231384,776.242065 
	C420.231384,755.019348 420.231384,734.181335 420.231384,713.205505 
	C417.654358,713.205505 415.589111,712.866394 413.696899,713.293579 
	C411.462036,713.798035 408.390625,714.344910 407.384949,715.944336 
	C400.305023,727.204346 393.663574,738.740051 386.537445,750.831909 
M786.805542,762.260437 
	C786.805542,767.039001 786.805542,771.817566 786.805542,776.146118 
	C792.061768,776.146118 796.628906,776.146118 801.435791,776.146118 
	C801.435791,770.202454 801.435791,764.788879 801.435791,759.556335 
	C809.856995,757.633606 816.780518,758.367859 820.512024,767.234070 
	C821.524536,769.639832 823.348999,771.731384 824.961243,773.844788 
	C825.713013,774.830261 826.811951,776.182495 827.814819,776.236938 
	C832.493774,776.490662 837.194153,776.349426 842.589722,776.349426 
	C837.520142,769.285339 833.090332,763.112732 828.572693,756.817749 
	C829.369751,756.174255 829.827332,755.709229 830.368408,755.382324 
	C839.255798,750.012817 842.603455,741.974548 840.936401,732.010681 
	C839.288452,722.160461 832.729187,715.910706 823.299011,714.684448 
	C811.386353,713.135315 799.239807,713.384705 786.788391,712.840515 
	C786.788391,729.715393 786.788391,745.515076 786.805542,762.260437 
M637.568176,764.945129 
	C633.466797,764.945129 629.365417,764.945129 625.439026,764.945129 
	C625.439026,759.598755 625.439026,755.036499 625.439026,749.989624 
	C635.249268,749.989624 644.674744,749.989624 654.347778,749.989624 
	C654.347778,746.081238 654.347778,742.670227 654.347778,738.765137 
	C644.505859,738.765137 634.922180,738.765137 625.284302,738.765137 
	C625.284302,733.994507 625.284302,729.723450 625.284302,725.014893 
	C636.284729,725.014893 647.038086,725.014893 657.956360,725.014893 
	C657.956360,720.854248 657.956360,717.138062 657.956360,713.514282 
	C642.131409,713.514282 626.694946,713.514282 610.944458,713.514282 
	C610.944458,734.674927 610.944458,755.567078 610.944458,776.333130 
	C627.213989,776.333130 643.145630,776.333130 659.224243,776.333130 
	C659.224243,772.391968 659.224243,768.824524 659.224243,764.945312 
	C652.137451,764.945312 645.343689,764.945312 637.568176,764.945129 
M882.987671,734.334229 
	C876.796570,748.178833 870.605530,762.023376 864.258484,776.216858 
	C865.688171,776.402405 866.483643,776.579346 867.282959,776.598389 
	C878.748352,776.872498 878.869812,776.917908 883.265320,766.369934 
	C884.371460,763.715515 885.724609,762.946777 888.446045,763.052673 
	C893.764771,763.259521 899.097900,763.121765 904.424744,763.084717 
	C914.346863,763.015747 914.302307,763.020264 917.888367,772.383301 
	C918.425354,773.785217 919.519836,775.956909 920.500244,776.038269 
	C925.160034,776.424805 929.869507,776.211121 934.767151,776.211121 
	C926.364441,757.492126 918.264771,739.462952 910.178467,721.427673 
	C906.351074,712.891174 906.364258,713.015991 897.158264,713.131470 
	C893.666504,713.175354 891.637451,714.496216 890.319824,717.673218 
	C888.092529,723.043457 885.610168,728.307922 882.987671,734.334229 
M534.749817,713.427795 
	C532.833984,713.427795 530.918152,713.427795 529.018799,713.427795 
	C529.018799,717.750244 529.018799,721.474609 529.018799,725.532104 
	C535.799866,725.532104 542.202576,725.532104 549.150024,725.532104 
	C549.150024,742.740417 549.150024,759.603516 549.150024,776.808594 
	C554.290039,776.559937 558.851440,776.339294 563.852661,776.097351 
	C563.852661,758.862427 563.852661,742.134888 563.852661,725.079956 
	C570.601196,725.079956 576.879211,725.079956 583.479614,725.079956 
	C583.479614,721.167847 583.479614,717.587585 583.479614,713.417908 
	C567.525940,713.417908 551.609314,713.417908 534.749817,713.427795 
M884.500000,837.982361 
	C904.811218,837.946411 925.122559,837.854065 945.433411,837.926086 
	C949.127380,837.939148 950.364685,836.849365 948.802917,833.254211 
	C902.176758,833.254211 855.650391,833.254211 808.731262,833.254211 
	C808.881165,834.938965 809.004089,836.320618 809.151978,837.982361 
	C834.236328,837.982361 858.868164,837.982361 884.500000,837.982361 
M414.500000,833.018677 
	C387.735474,833.018677 360.970947,833.018677 334.075500,833.018677 
	C334.075500,834.861389 334.075500,836.263611 334.075500,837.785645 
	C380.846344,837.785645 427.279572,837.785645 474.058533,837.785645 
	C474.058533,836.197876 474.058533,834.805725 474.058533,833.019165 
	C454.412292,833.019165 434.956146,833.019165 414.500000,833.018677 
M589.945923,846.274475 
	C591.813904,847.095215 593.681885,847.916016 595.549866,848.736755 
	C595.904297,848.291504 596.258728,847.846191 596.613098,847.400940 
	C593.116821,839.562195 589.796082,831.638000 586.037903,823.926880 
	C584.536438,820.846252 580.743958,821.030823 578.759827,824.142578 
	C577.164917,826.643982 576.056030,829.465332 574.826538,832.187622 
	C572.548889,837.230408 570.340759,842.304626 568.103699,847.365723 
	C568.598633,847.856445 569.093506,848.347168 569.588440,848.837891 
	C571.269836,847.840271 573.530640,847.235474 574.523499,845.771118 
	C577.446411,841.460327 586.245911,841.163757 589.945923,846.274475 
M717.559937,839.787964 
	C715.171753,834.691040 712.906982,829.531189 710.351318,824.519775 
	C708.697510,821.276917 704.774109,820.653931 703.282349,823.547974 
	C699.302307,831.269348 695.827026,839.250977 692.151123,847.129150 
	C692.619873,847.669373 693.088562,848.209534 693.557251,848.749756 
	C695.374573,847.741882 697.867371,847.178528 698.879272,845.640625 
	C701.622925,841.470703 710.651245,840.901917 713.288513,845.326111 
	C715.105896,848.374878 717.261841,848.665405 720.578247,847.685974 
	C719.580872,845.063416 718.710205,842.774048 717.559937,839.787964 
M613.693298,844.902100 
	C613.777344,843.519714 613.861389,842.137329 613.929871,841.011658 
	C617.215759,840.820435 619.911621,840.944153 622.490112,840.452698 
	C627.269897,839.541687 630.160461,835.896912 630.043152,831.365967 
	C629.918335,826.546387 627.480103,823.404114 622.701416,822.792542 
	C617.880676,822.175598 612.986328,822.133118 608.120972,821.838806 
	C608.120972,831.116028 608.120972,839.511902 608.120972,847.907776 
	C608.499268,848.284546 608.877625,848.661316 609.255920,849.038086 
	C610.738281,847.945618 612.220581,846.853149 613.693298,844.902100 
M556.744019,845.291077 
	C556.849426,844.089172 556.954834,842.887329 557.060242,841.685425 
	C555.875671,841.784790 554.676880,841.805298 553.512207,842.015198 
	C552.882324,842.128723 552.329651,842.616699 551.709473,842.848022 
	C547.517883,844.411621 543.658264,843.846313 541.040466,840.102051 
	C538.640930,836.669922 538.776184,832.668945 541.298096,829.391724 
	C543.998840,825.882202 547.864075,826.020691 551.715271,827.544556 
	C552.483521,827.848694 553.197449,828.563110 553.946838,828.578430 
	C555.097107,828.601807 556.256470,828.183105 557.411987,827.951965 
	C557.009155,826.692932 556.993225,824.978516 556.138000,824.251892 
	C551.914551,820.663635 543.379822,820.926453 538.858154,824.524963 
	C533.217529,829.013977 532.238098,837.183105 536.603027,843.333252 
	C540.750610,849.177124 549.263733,850.253052 556.744019,845.291077 
M669.269348,837.480957 
	C669.269348,840.912476 669.269348,844.343994 669.269348,847.821289 
	C671.630493,847.821289 673.365356,847.821289 675.542480,847.821289 
	C675.542480,840.759460 675.542480,834.015320 675.542480,826.910339 
	C677.447449,826.910339 678.997925,827.217041 680.344421,826.824463 
	C681.696411,826.430237 682.845154,825.339172 684.082947,824.553528 
	C682.772339,823.735291 681.491333,822.272156 680.146057,822.210510 
	C674.326172,821.943726 668.487427,822.080078 662.655579,822.093445 
	C662.196716,822.094482 661.738220,822.277405 660.900269,822.457214 
	C660.995056,823.906738 661.085938,825.296692 661.181458,826.756897 
	C664.015869,826.895630 666.430298,827.013855 669.279480,827.153320 
	C669.279480,830.564026 669.279480,833.535278 669.269348,837.480957 
M737.590149,833.524170 
	C737.590149,829.797791 737.590149,826.071350 737.590149,821.957886 
	C735.258301,822.117798 733.553955,822.234619 731.992432,822.341675 
	C731.992432,831.139526 731.992432,839.377197 731.992432,847.972046 
	C737.772766,847.972046 743.217834,848.144104 748.632385,847.814514 
	C749.614502,847.754761 750.471558,845.640442 752.036011,843.646729 
	C746.105286,843.348145 741.864929,843.134644 737.548828,842.917358 
	C737.548828,839.795166 737.548828,837.155457 737.590149,833.524170 
M649.543518,835.485107 
	C649.543518,831.201294 649.543518,826.917480 649.543518,822.501709 
	C647.454102,822.501709 645.615234,822.501709 643.842773,822.501709 
	C643.842773,831.208923 643.842773,839.473022 643.842773,847.773193 
	C645.866333,847.773193 647.586121,847.773193 649.512146,847.773193 
	C649.512146,843.762878 649.512146,840.114136 649.543518,835.485107 
z"/>
<path fill="#F6F6F4" opacity="1.000000" stroke="none" 
	d="
M530.985657,384.043060 
	C539.973694,384.063599 548.961792,384.084106 558.554321,384.578949 
	C560.918274,385.030640 562.677734,385.008026 564.437256,384.985382 
	C567.432129,382.406311 569.506287,384.396362 571.062073,386.668091 
	C572.587708,388.895905 573.564209,391.499817 574.955078,394.407379 
	C575.128540,394.876068 575.077393,395.262726 575.183228,395.430298 
	C575.479919,395.798401 575.711182,395.925476 575.994995,395.980286 
	C576.007080,395.981506 576.025085,395.997589 576.015503,396.385437 
	C578.210510,400.851562 580.415161,404.929840 582.800049,409.199890 
	C583.037354,409.729828 583.094421,410.067993 583.186157,410.721710 
	C583.480286,411.357788 583.739807,411.678253 584.114685,412.072083 
	C584.230042,412.145447 584.168701,412.411926 584.127930,412.807861 
	C584.702576,414.135895 585.317932,415.068024 586.067505,416.085693 
	C586.201721,416.171295 586.157288,416.486511 586.133545,416.864502 
	C586.778137,418.502594 587.446411,419.762665 588.326599,421.314209 
	C591.716492,428.320099 594.894470,435.034546 598.098755,441.969788 
	C598.204895,442.486420 598.373596,442.717102 598.914795,443.124420 
	C600.144653,445.526062 601.091003,447.685944 602.089722,450.081390 
	C602.270508,450.621460 602.472168,450.865387 602.816895,451.016602 
	C602.886658,450.984497 602.944153,451.126984 602.963562,451.482117 
	C604.019592,453.546478 605.056274,455.255676 606.053345,456.970642 
	C606.013733,456.976440 606.060486,456.911530 606.044556,457.296143 
	C607.682068,460.786438 609.335449,463.892090 611.112427,467.073944 
	C611.236023,467.150146 611.173828,467.433777 611.142212,467.797668 
	C611.722107,469.104492 612.333679,470.047455 613.077148,471.078674 
	C613.209045,471.166901 613.138672,471.476379 613.176514,471.778992 
	C613.468384,472.385925 613.722473,472.690308 614.101074,473.065063 
	C614.225708,473.135437 614.175232,473.417175 614.142395,473.782776 
	C614.717285,475.103790 615.325073,476.059204 616.155334,477.194336 
	C616.631531,478.076447 616.885254,478.778809 617.167786,479.779572 
	C617.427490,480.393188 617.658325,480.708405 618.119873,481.209442 
	C618.614014,482.125488 618.877502,482.855713 619.125732,483.946228 
	C619.502197,484.843353 619.893799,485.380157 620.524292,486.104950 
	C621.215698,487.408813 621.668152,488.524750 622.148743,489.900574 
	C622.386658,490.429565 622.596375,490.698700 622.953979,491.135681 
	C623.101868,491.303467 623.086548,491.750549 623.123901,491.988922 
	C623.270447,492.546112 623.470459,492.790527 623.923584,493.119690 
	C624.085693,493.278870 624.101929,493.733032 624.074585,494.111694 
	C624.765259,495.672272 625.483337,496.854248 626.239746,498.097290 
	C626.278137,498.158356 626.214539,498.287842 626.235596,498.627014 
	C626.544250,499.297180 626.831848,499.628143 627.077148,499.956848 
	C627.034851,499.954620 627.087585,499.888367 627.060669,500.230469 
	C627.596863,501.383057 628.159851,502.193573 628.880493,503.185516 
	C629.038208,503.366974 629.060120,503.847260 629.043091,504.211914 
	C629.727173,505.701019 630.428284,506.825531 631.086426,507.954468 
	C631.043457,507.958954 631.085571,507.883423 631.061829,508.266479 
	C632.729736,511.773346 634.421448,514.897156 636.184204,518.079224 
	C636.255310,518.137573 636.228699,518.319519 636.183350,518.709351 
	C637.106079,520.734863 638.074219,522.370544 639.142334,524.075256 
	C639.242188,524.144287 639.191406,524.381714 639.156128,524.743286 
	C640.041382,526.513367 640.961914,527.921997 642.077881,529.338867 
	C642.273376,529.347107 642.624756,529.175049 642.624756,529.175049 
	C649.398438,543.870300 656.172180,558.565491 663.508423,574.481201 
	C668.768616,562.989624 673.451599,552.759216 678.494080,541.987549 
	C681.785095,535.115601 684.716553,528.784912 687.856079,522.111145 
	C691.939941,513.498413 695.852600,505.245941 699.684204,496.955902 
	C709.996460,474.644226 720.274048,452.316498 730.802856,429.786804 
	C732.209412,426.995819 733.378479,424.413239 734.547485,421.830627 
	C739.394043,411.525208 744.478394,401.322388 748.987183,390.871246 
	C751.252502,385.620331 754.238342,382.853607 760.163025,383.930267 
	C761.916870,384.249023 763.789062,383.917053 766.401245,383.610199 
	C776.845581,383.490021 786.495544,383.732819 796.145935,383.751038 
	C799.938843,383.758209 801.201843,385.161957 801.199402,389.055603 
	C801.161438,450.800171 801.279053,512.544861 801.279541,574.289490 
	C801.279602,575.949646 800.370178,577.609741 799.884888,579.269897 
	C785.935242,579.167542 771.985657,579.063721 758.036011,578.964478 
	C756.251587,578.951782 754.467041,578.962708 752.286072,578.962708 
	C752.286072,552.337952 752.286072,526.238525 752.286072,500.139160 
	C751.984497,500.037842 751.682861,499.936554 751.381287,499.835266 
	C750.147095,502.066284 748.912964,504.297302 747.319580,507.091064 
	C744.027649,513.677368 741.094971,519.700867 737.951782,526.041870 
	C736.513794,528.716248 735.255249,531.057617 734.063477,533.432556 
	C717.888550,565.665100 701.722900,597.902344 685.188477,630.163086 
	C682.386597,630.423218 679.951233,630.658691 677.515808,630.894165 
	C667.239746,630.834229 656.962708,630.669678 646.688293,630.773376 
	C643.273499,630.807800 641.131836,629.649902 639.637573,626.553650 
	C636.977905,621.042603 634.047424,615.662292 630.938599,609.627380 
	C624.430908,596.935242 618.189087,584.856079 612.004944,572.747559 
	C603.560242,556.212830 595.159424,539.655762 587.002686,522.934448 
	C586.742126,522.211487 586.218750,521.662354 585.483154,520.983032 
	C585.135376,520.388489 584.999817,519.924133 584.833008,519.174805 
	C584.566956,518.600708 584.332092,518.311462 583.950317,517.938110 
	C583.803406,517.853943 583.846741,517.518188 583.886841,517.088989 
	C583.177246,515.517700 582.427490,514.375549 581.735291,513.168884 
	C581.792786,513.104370 581.741089,513.269287 581.815308,512.901001 
	C581.267883,511.689056 580.646362,510.845459 579.896484,509.923706 
	C579.768250,509.845520 579.839294,509.553680 579.881470,509.116394 
	C579.024231,505.724731 577.988098,502.802765 577.277588,499.803650 
	C576.864136,498.058350 576.972656,496.189392 576.846375,494.376068 
	C578.853271,495.177246 581.113220,495.633606 582.799988,496.871094 
	C584.700745,498.265625 586.085449,500.363647 587.078247,501.469269 
	C590.321228,500.231476 592.938782,498.178680 594.886536,498.687958 
	C600.558289,500.170959 604.550232,497.205994 608.657898,494.590363 
	C609.703430,493.924561 610.511536,491.229553 610.017029,490.067780 
	C606.554565,481.932770 602.721863,473.955353 598.966675,465.839081 
	C594.188110,467.754425 590.976318,467.129272 588.228577,463.816254 
	C586.005432,461.135925 582.940125,460.046234 579.753662,461.985870 
	C574.040161,465.463837 568.517822,467.636566 562.706848,462.189758 
	C562.153992,461.671539 560.733582,462.192596 559.782043,461.960419 
	C558.196960,461.573578 556.114502,461.438446 555.204651,460.374023 
	C550.802002,455.223663 545.095764,456.872681 539.842896,457.350922 
	C534.677734,457.821228 531.490479,463.216827 532.260437,468.490845 
	C532.663818,471.253998 532.786682,474.075562 532.815552,476.873047 
	C532.981750,492.953583 533.106079,509.034668 533.190247,525.115845 
	C533.216858,530.202698 532.674438,535.325012 533.107544,540.369690 
	C533.742004,547.760620 534.968811,555.104065 536.090576,562.445251 
	C536.228577,563.348145 537.126343,564.636597 537.918823,564.856445 
	C543.070740,566.285767 546.616760,569.452454 550.335815,573.312317 
	C554.005493,577.120972 557.475159,580.520386 558.654236,585.795593 
	C558.737305,586.167053 559.641174,586.354980 560.680908,586.899170 
	C560.811035,584.924011 560.957703,583.491089 560.990967,582.055603 
	C561.135803,575.820374 561.016907,569.569214 561.424072,563.352112 
	C562.072571,553.450806 563.367859,543.585876 563.825195,533.679565 
	C564.294067,523.522034 563.986206,513.330322 564.286804,503.161530 
	C564.328369,501.754272 565.911072,500.392578 566.780273,499.009766 
	C567.283386,499.123444 567.786499,499.237122 568.289612,499.350800 
	C568.525879,501.353851 568.619141,503.387817 569.043335,505.350250 
	C569.388123,506.945099 570.129944,508.454132 570.821411,510.454529 
	C570.845703,519.603699 570.744263,528.299561 570.338684,537.082397 
	C570.229797,538.447937 570.425110,539.726562 570.744507,541.393188 
	C570.778076,542.852356 570.687683,543.923645 570.241333,545.136719 
	C569.601990,545.845398 569.074219,546.410950 569.071289,546.979187 
	C569.013306,558.418640 568.979736,569.858643 569.075073,581.297485 
	C569.082642,582.204224 570.068481,583.102844 570.718018,584.329651 
	C570.758667,585.100830 570.680969,585.547668 570.353149,586.050049 
	C570.268066,586.739075 570.433167,587.372498 570.720215,588.454346 
	C570.771362,592.933716 570.700623,596.964783 570.301880,601.105835 
	C570.217896,603.144714 570.461914,605.073669 570.845825,607.320801 
	C571.066040,608.310364 571.146484,608.981750 571.226868,609.653137 
	C571.125427,617.467834 571.034546,625.282715 570.919434,633.097168 
	C570.805786,640.810120 570.795410,640.861328 563.335815,640.911682 
	C553.356262,640.978943 543.376099,640.956848 532.664551,640.943359 
	C531.604309,640.832947 531.275635,640.752136 530.685181,640.475830 
	C528.967468,640.413879 527.511597,640.547424 525.916992,640.773682 
	C525.778198,640.866333 525.509705,641.064514 525.066162,640.973328 
	C520.691589,640.303345 521.994690,637.203491 521.993713,635.000122 
	C521.964478,569.509460 522.001526,504.018768 522.128052,438.251648 
	C522.333191,437.606964 522.438354,437.238739 522.679138,436.660583 
	C522.705200,435.667450 522.595703,434.884247 522.359131,433.841736 
	C522.127380,433.043854 522.022766,432.505341 521.918213,431.966797 
	C521.958130,417.513824 521.932983,403.059906 522.133179,388.609161 
	C522.154480,387.071014 523.494568,385.551178 524.908020,384.337036 
	C527.390625,384.448517 529.188171,384.245789 530.985657,384.043060 
z"/>
<path fill="#24AE1F" opacity="1.000000" stroke="none" 
	d="
M799.845459,579.636963 
	C800.370178,577.609741 801.279602,575.949646 801.279541,574.289490 
	C801.279053,512.544861 801.161438,450.800171 801.199402,389.055603 
	C801.201843,385.161957 799.938843,383.758209 796.145935,383.751038 
	C786.495544,383.732819 776.845581,383.490021 766.770813,383.271667 
	C766.520325,377.262207 766.770996,371.319214 766.849792,365.373932 
	C766.955688,357.377869 767.106689,349.375031 766.881653,341.385132 
	C766.774292,337.570862 768.299438,336.430756 771.825195,336.485199 
	C779.320190,336.601013 786.827148,336.281189 794.312256,336.573364 
	C798.364441,336.731537 799.486877,335.295624 799.367004,331.422760 
	C799.124878,323.600067 799.434998,315.761414 799.264404,307.934845 
	C799.183655,304.231415 800.582825,303.002472 804.249817,303.020569 
	C807.973328,303.038971 808.060730,304.989197 808.072449,307.807312 
	C808.106323,315.964233 808.500244,324.120392 808.488220,332.276459 
	C808.483337,335.606964 809.810242,336.616028 812.955505,336.555969 
	C820.616394,336.409576 828.284973,336.616730 835.943787,336.421326 
	C839.311462,336.335358 840.572144,337.236603 840.566895,340.887787 
	C840.467346,409.696198 840.473511,478.504822 840.573181,547.313232 
	C840.578735,551.179382 839.173035,552.127075 835.573975,552.011108 
	C828.251282,551.775208 820.911255,552.095276 813.587036,551.884766 
	C809.914490,551.779297 808.546143,553.026672 808.621826,556.753174 
	C808.784119,564.745972 808.531616,572.746216 808.587585,580.742493 
	C808.614746,584.622253 808.385925,587.602844 803.027466,586.980591 
	C797.542664,586.343811 799.531433,582.932556 799.845459,579.636963 
z"/>
<path fill="#24AE1F" opacity="1.000000" stroke="none" 
	d="
M584.168701,412.411926 
	C584.168701,412.411926 584.230042,412.145447 584.100952,411.750061 
	C583.698425,411.038483 583.424988,410.722321 583.151550,410.406128 
	C583.094421,410.067993 583.037354,409.729828 582.774353,408.852142 
	C580.387268,404.207611 578.206177,400.102600 576.025085,395.997589 
	C576.025085,395.997589 576.007080,395.981506 575.882874,395.816986 
	C575.531494,395.522736 575.304382,395.392822 575.077393,395.262726 
	C575.077393,395.262726 575.128540,394.876068 575.210571,394.705383 
	C584.245056,394.534729 593.197571,394.534729 602.911865,394.534729 
	C602.911865,388.562805 602.907532,383.298584 602.913147,378.034363 
	C602.918335,373.208344 603.098145,368.375214 602.889648,363.558716 
	C602.741821,360.143524 604.246582,359.232697 607.353455,359.344269 
	C610.325378,359.451019 611.864197,360.188507 611.786621,363.677307 
	C611.590698,372.491577 611.927612,381.317047 611.774597,390.133240 
	C611.716797,393.462677 612.904785,394.435150 616.105652,394.378632 
	C625.208313,394.217957 634.315674,394.322266 643.731995,394.322266 
	C643.829163,396.354218 643.950134,397.803894 643.960327,399.254364 
	C644.250366,440.515717 644.548584,481.777069 644.750610,523.038879 
	C644.760254,525.017639 643.904968,527.000549 643.038574,529.078308 
	C642.624756,529.175049 642.273376,529.347107 642.028809,528.982666 
	C640.920044,527.205994 640.055725,525.793823 639.191406,524.381714 
	C639.191406,524.381714 639.242188,524.144287 639.127075,523.715454 
	C638.084229,521.630859 637.156494,519.975220 636.228699,518.319519 
	C636.228699,518.319519 636.255310,518.137573 636.148987,517.708069 
	C634.390259,514.146851 632.737915,511.015137 631.085571,507.883423 
	C631.085571,507.883423 631.043457,507.958954 631.065979,507.614380 
	C630.412415,506.128937 629.736267,504.988098 629.060120,503.847260 
	C629.060120,503.847260 629.038208,503.366974 628.884521,502.879700 
	C628.183105,501.557770 627.635376,500.723053 627.087585,499.888367 
	C627.087585,499.888367 627.034851,499.954620 627.056885,499.618744 
	C626.790833,498.951202 626.502686,498.619507 626.214539,498.287842 
	C626.214539,498.287842 626.278137,498.158356 626.213501,497.743988 
	C625.466492,496.130768 624.784180,494.931915 624.101929,493.733032 
	C624.101929,493.733032 624.085693,493.278870 623.936646,492.864319 
	C623.553955,492.216675 623.320251,491.983612 623.086548,491.750549 
	C623.086548,491.750549 623.101868,491.303467 622.968994,490.861511 
	C622.597656,490.159912 622.359192,489.900269 622.120605,489.640686 
	C621.668152,488.524750 621.215698,487.408813 620.497375,485.766602 
	C619.868042,484.688843 619.504517,484.137360 619.140991,483.585907 
	C618.877502,482.855713 618.614014,482.125488 618.115112,480.903076 
	C617.632690,480.100983 617.385803,479.791107 617.138916,479.481201 
	C616.885254,478.778809 616.631531,478.076447 616.144287,476.850983 
	C615.332214,475.357666 614.753723,474.387421 614.175232,473.417175 
	C614.175232,473.417175 614.225708,473.135437 614.085266,472.755493 
	C613.676086,472.075836 613.407349,471.776123 613.138672,471.476379 
	C613.138672,471.476379 613.209045,471.166901 613.077271,470.734924 
	C612.354980,469.346558 611.764404,468.390167 611.173828,467.433777 
	C611.173828,467.433777 611.236023,467.150146 611.097412,466.708771 
	C609.326050,463.148773 607.693237,460.030151 606.060486,456.911530 
	C606.060486,456.911530 606.013733,456.976440 606.026489,456.618317 
	C605.007507,454.549133 603.975830,452.838043 602.944153,451.126984 
	C602.944153,451.126984 602.886658,450.984497 602.681763,450.827515 
	C602.359558,450.380035 602.213013,450.105164 602.037354,449.845825 
	C601.091003,447.685944 600.144653,445.526062 598.856995,442.922119 
	C598.448792,442.185974 598.301086,441.942932 598.072510,441.748962 
	C594.894470,435.034546 591.716492,428.320099 588.377075,420.948242 
	C587.529480,419.022736 586.843384,417.754608 586.157288,416.486511 
	C586.157288,416.486511 586.201721,416.171295 586.056396,415.744568 
	C585.330261,414.349213 584.749512,413.380554 584.168701,412.411926 
z"/>
<path fill="#D40708" opacity="1.000000" stroke="none" 
	d="
M521.466064,431.850708 
	C522.022766,432.505341 522.127380,433.043854 522.256958,434.182861 
	C522.369080,435.479065 522.456299,436.174805 522.543457,436.870514 
	C522.438354,437.238739 522.333191,437.606964 521.711365,438.339264 
	C519.062500,439.001190 516.932251,439.540741 514.797974,439.556915 
	C502.660156,439.648895 490.518036,439.780579 478.384735,439.535095 
	C474.209900,439.450592 472.559479,440.304321 472.565308,444.945160 
	C472.666107,525.319580 472.619690,605.694275 472.484467,686.068726 
	C472.477478,690.227661 473.771881,691.523499 477.910583,691.447327 
	C491.889923,691.189819 505.877167,691.147400 519.857910,691.314941 
	C523.911438,691.363464 525.393311,690.238525 525.354004,686.004639 
	C525.214722,671.026367 525.429260,656.044800 525.509705,641.064514 
	C525.509705,641.064514 525.778198,640.866333 526.316528,640.868164 
	C528.218933,640.803772 529.583008,640.737610 530.947021,640.671387 
	C531.275635,640.752136 531.604309,640.832947 532.161682,641.011230 
	C532.683777,654.029114 532.996582,666.949097 533.260742,679.870117 
	C533.365967,685.018250 533.230103,690.174500 533.458313,695.315735 
	C533.604797,698.614685 532.239746,699.674072 529.082458,699.701599 
	C521.782898,699.765198 514.486145,700.224548 507.187164,700.255737 
	C503.797211,700.270203 502.450989,700.985168 503.017822,704.846313 
	C503.879761,710.717773 504.278137,716.703247 504.231384,722.635315 
	C504.216614,724.513794 502.525848,727.309021 500.908630,727.958862 
	C499.547852,728.505615 497.180817,726.548096 495.342163,725.038574 
	C495.167206,720.723755 494.909332,717.069458 494.651459,713.415222 
	C495.030884,699.802734 495.030884,699.802368 481.777893,699.749084 
	C477.781036,699.732971 473.782501,699.642517 469.787811,699.728027 
	C466.409210,699.800293 465.109375,698.374084 465.098206,694.930908 
	C465.043091,677.951172 464.668671,660.972168 464.653900,643.992676 
	C464.603790,586.370422 464.631622,528.748047 464.694458,471.125793 
	C464.706818,459.807800 465.117889,448.490021 465.109314,437.172363 
	C465.106750,433.774109 466.400848,432.175293 469.662384,432.086395 
	C476.147247,431.909637 482.642212,431.525482 489.116455,431.736176 
	C493.609436,431.882477 495.479980,430.549255 495.251251,425.820251 
	C494.962128,419.842224 495.385132,413.833221 495.309692,407.839996 
	C495.271240,404.786438 495.806854,402.417542 499.475006,402.508789 
	C503.416382,402.606842 502.607056,405.676544 502.631256,408.033936 
	C502.694519,414.195007 502.746643,420.360291 502.582733,426.518005 
	C502.486847,430.120239 503.842804,431.685516 507.536865,431.577972 
	C512.023926,431.447418 516.521118,431.666687 521.466064,431.850708 
z"/>
<path fill="#24AE1F" opacity="1.000000" stroke="none" 
	d="
M584.864197,519.459717 
	C584.999817,519.924133 585.135376,520.388489 585.484009,521.284790 
	C586.044617,522.180603 586.392212,522.644409 586.739746,523.108276 
	C595.159424,539.655762 603.560242,556.212830 612.004944,572.747559 
	C618.189087,584.856079 624.430908,596.935242 630.703125,609.331177 
	C625.941223,609.719238 621.113770,610.022095 616.308105,609.816406 
	C612.668335,609.660645 611.760742,611.175720 611.837891,614.510498 
	C612.022888,622.505981 611.813843,630.510620 612.004333,638.505859 
	C612.083862,641.844849 611.659973,643.889221 607.535034,643.801636 
	C603.816650,643.722656 602.659729,642.415833 602.785522,638.729553 
	C603.046753,631.072388 602.632202,623.390503 602.949768,615.737671 
	C603.136353,611.242554 601.879211,609.528076 597.120300,609.731140 
	C588.804016,610.085938 580.460144,609.797119 571.677368,609.715576 
	C571.146484,608.981750 571.066040,608.310364 570.948364,606.899414 
	C570.817383,604.438538 570.723633,602.717224 570.629883,600.995850 
	C570.700623,596.964783 570.771362,592.933716 570.844299,588.126831 
	C570.765442,586.898804 570.684326,586.446594 570.603271,585.994446 
	C570.680969,585.547668 570.758667,585.100830 570.849731,583.877136 
	C570.774536,570.398438 570.685913,557.696655 570.597290,544.994873 
	C570.687683,543.923645 570.778076,542.852356 570.878540,541.005737 
	C570.806702,539.152100 570.724792,538.073730 570.642822,536.995422 
	C570.744263,528.299561 570.845703,519.603699 570.948120,510.017273 
	C570.949036,504.890106 570.949036,500.653503 570.949036,496.416870 
	C571.293945,496.331421 571.638916,496.246002 571.983826,496.160553 
	C574.602356,500.624939 577.220825,505.089294 579.839294,509.553680 
	C579.839294,509.553680 579.768250,509.845520 579.891235,510.248108 
	C580.589783,511.523590 581.165466,512.396423 581.741089,513.269287 
	C581.741089,513.269287 581.792786,513.104370 581.764160,513.514526 
	C582.439270,515.122498 583.143005,516.320374 583.846741,517.518188 
	C583.846741,517.518188 583.803406,517.853943 583.951721,518.232483 
	C584.354736,518.893921 584.609497,519.176819 584.864197,519.459717 
z"/>
<path fill="#F5F4F3" opacity="1.000000" stroke="none" 
	d="
M386.709747,750.509827 
	C393.663574,738.740051 400.305023,727.204346 407.384949,715.944336 
	C408.390625,714.344910 411.462036,713.798035 413.696899,713.293579 
	C415.589111,712.866394 417.654358,713.205505 420.231384,713.205505 
	C420.231384,734.181335 420.231384,755.019348 420.231384,776.242065 
	C416.142334,776.242065 411.893341,776.242065 407.135742,776.242065 
	C407.135742,764.449036 407.135742,752.777832 407.135742,741.106628 
	C406.735535,740.963257 406.335297,740.819885 405.935089,740.676514 
	C402.136108,746.970703 398.350494,753.273010 394.531738,759.555176 
	C392.977570,762.111938 391.543701,764.774231 389.717285,767.126160 
	C386.179108,771.682434 383.086609,771.574768 379.948883,766.709290 
	C375.173798,759.304688 370.625580,751.753906 365.968536,744.272949 
	C365.549561,743.599915 365.039703,742.983398 363.679871,741.114441 
	C363.679871,753.512207 363.679871,764.584045 363.679871,776.059265 
	C358.725311,776.313049 354.474182,776.530884 349.871521,776.766663 
	C349.871521,755.629944 349.871521,734.900452 349.871521,714.206238 
	C359.218445,711.743958 360.721313,712.269897 365.365417,719.876160 
	C371.259338,729.529419 377.042542,739.250977 383.030731,748.844971 
	C383.655975,749.846619 385.343048,750.185486 386.709747,750.509827 
z"/>
<path fill="#F6F6F4" opacity="1.000000" stroke="none" 
	d="
M786.796997,761.787598 
	C786.788391,745.515076 786.788391,729.715393 786.788391,712.840515 
	C799.239807,713.384705 811.386353,713.135315 823.299011,714.684448 
	C832.729187,715.910706 839.288452,722.160461 840.936401,732.010681 
	C842.603455,741.974548 839.255798,750.012817 830.368408,755.382324 
	C829.827332,755.709229 829.369751,756.174255 828.572693,756.817749 
	C833.090332,763.112732 837.520142,769.285339 842.589722,776.349426 
	C837.194153,776.349426 832.493774,776.490662 827.814819,776.236938 
	C826.811951,776.182495 825.713013,774.830261 824.961243,773.844788 
	C823.348999,771.731384 821.524536,769.639832 820.512024,767.234070 
	C816.780518,758.367859 809.856995,757.633606 801.435791,759.556335 
	C801.435791,764.788879 801.435791,770.202454 801.435791,776.146118 
	C796.628906,776.146118 792.061768,776.146118 786.805542,776.146118 
	C786.805542,771.817566 786.805542,767.039001 786.796997,761.787598 
M826.398865,738.739929 
	C827.210693,732.675903 825.355713,727.865601 820.335876,726.736267 
	C814.214783,725.359131 807.784424,725.356689 801.555908,724.766174 
	C801.555908,733.046387 801.555908,740.064087 801.555908,747.092957 
	C806.777893,747.092957 811.569824,747.231018 816.350220,747.054810 
	C821.319580,746.871704 824.818726,744.512390 826.398865,738.739929 
z"/>
<path fill="#F6F6F4" opacity="1.000000" stroke="none" 
	d="
M717.450073,712.355774 
	C726.942505,712.113342 736.082275,713.354431 743.845825,719.408081 
	C755.090637,728.176147 759.321106,742.969727 754.524170,756.147156 
	C749.630249,769.590820 736.508728,778.048035 721.226501,777.579224 
	C707.753845,777.165894 696.809570,771.991333 690.756226,759.530762 
	C685.387024,748.478210 685.481506,736.934753 693.089417,726.975830 
	C696.854797,722.046753 702.861938,718.830139 708.506836,714.647217 
	C711.922546,713.755676 714.686279,713.055725 717.450073,712.355774 
M733.184631,761.879089 
	C734.501770,760.620667 735.964722,759.481934 737.112122,758.084167 
	C744.505798,749.077332 742.749939,735.182861 733.432373,728.455383 
	C724.489746,721.998718 711.151001,724.442505 705.346741,733.600891 
	C700.420288,741.374084 701.147583,751.971436 707.066467,758.659424 
	C713.287903,765.689331 723.046997,767.070679 733.184631,761.879089 
z"/>
<path fill="#F5F4F3" opacity="1.000000" stroke="none" 
	d="
M638.059082,764.945190 
	C645.343689,764.945312 652.137451,764.945312 659.224243,764.945312 
	C659.224243,768.824524 659.224243,772.391968 659.224243,776.333130 
	C643.145630,776.333130 627.213989,776.333130 610.944458,776.333130 
	C610.944458,755.567078 610.944458,734.674927 610.944458,713.514282 
	C626.694946,713.514282 642.131409,713.514282 657.956360,713.514282 
	C657.956360,717.138062 657.956360,720.854248 657.956360,725.014893 
	C647.038086,725.014893 636.284729,725.014893 625.284302,725.014893 
	C625.284302,729.723450 625.284302,733.994507 625.284302,738.765137 
	C634.922180,738.765137 644.505859,738.765137 654.347778,738.765137 
	C654.347778,742.670227 654.347778,746.081238 654.347778,749.989624 
	C644.674744,749.989624 635.249268,749.989624 625.439026,749.989624 
	C625.439026,755.036499 625.439026,759.598755 625.439026,764.945129 
	C629.365417,764.945129 633.466797,764.945129 638.059082,764.945190 
z"/>
<path fill="#C3090A" opacity="1.000000" stroke="none" 
	d="
M717.466064,711.864746 
	C714.686279,713.055725 711.922546,713.755676 708.863220,714.461975 
	C708.492126,710.316650 708.191956,706.153198 708.408813,702.016846 
	C708.597534,698.419067 707.160645,697.413330 703.763000,697.496826 
	C696.777405,697.668579 689.782166,697.410706 682.793640,697.514648 
	C679.050049,697.570312 677.312744,696.171387 677.331482,692.255188 
	C677.427979,672.117615 677.397156,651.979492 677.463318,631.367920 
	C679.951233,630.658691 682.386597,630.423218 685.256836,630.609497 
	C685.719116,648.337769 685.870117,665.645569 685.684998,682.949707 
	C685.640015,687.159546 687.001160,688.349365 691.103455,688.288025 
	C705.411560,688.074097 719.726135,688.093689 734.035095,688.275818 
	C737.839539,688.324280 739.340576,687.339539 739.327393,683.270386 
	C739.163574,632.515015 739.154114,581.759216 739.050171,531.003540 
	C739.046509,529.243225 738.471130,527.484131 738.162231,525.724426 
	C741.094971,519.700867 744.027649,513.677368 747.172974,507.459961 
	C748.078125,508.771515 749.386475,510.283844 749.369751,511.781372 
	C749.156433,530.916931 748.625854,550.049072 748.427307,569.184692 
	C748.098755,600.827454 747.884888,632.471924 747.773560,664.116150 
	C747.741394,673.264954 748.086243,682.422302 748.532471,691.562378 
	C748.749268,696.003906 746.875000,697.509888 742.674438,697.440430 
	C735.679565,697.324585 728.678040,697.598938 721.683289,697.479187 
	C718.422852,697.423401 717.159912,698.653381 717.361023,701.881592 
	C717.557617,705.035889 717.453918,708.208862 717.466064,711.864746 
M743.047363,694.960388 
	C744.029358,693.517029 745.833679,692.081177 745.846924,690.628967 
	C745.896667,685.170898 745.107483,679.708252 745.089417,674.245850 
	C744.993469,645.258606 745.054077,616.270874 744.991699,587.283447 
	C744.987427,585.287476 744.424011,583.292725 744.120605,581.297363 
	C743.408875,581.388245 742.697205,581.479065 741.985474,581.569946 
	C741.985474,583.448181 741.985657,585.326477 741.985352,587.204773 
	C741.980896,619.190979 741.982544,651.177246 741.966431,683.163452 
	C741.963501,689.049500 741.079285,689.990356 735.439087,689.999451 
	C719.945801,690.024536 704.450867,689.877380 688.960205,690.078369 
	C684.196899,690.140198 683.286926,687.394287 683.322876,683.796570 
	C683.458923,670.165833 683.869934,656.536682 683.877014,642.906738 
	C683.878479,640.026978 682.607971,637.146606 681.923523,634.266479 
	C681.437744,634.377686 680.952026,634.488831 680.466309,634.599976 
	C680.313904,635.209717 680.029480,635.819214 680.028320,636.429199 
	C679.992676,654.754456 680.026428,673.080017 679.930786,691.404846 
	C679.915405,694.351196 681.210083,695.088562 683.868286,695.046448 
	C690.363647,694.943420 696.862061,695.027405 703.359253,695.038452 
	C710.478210,695.050598 710.945435,695.565430 710.998291,702.765076 
	C711.018066,705.456665 711.266357,708.146545 711.410522,710.837219 
	C712.162476,710.825195 712.914368,710.813110 713.666321,710.801025 
	C713.792480,708.316223 714.002808,705.832214 714.028564,703.346375 
	C714.099243,696.528931 715.494324,695.054199 722.135803,695.031799 
	C728.799561,695.009338 735.463379,695.006836 743.047363,694.960388 
z"/>
<path fill="#F5F4F3" opacity="1.000000" stroke="none" 
	d="
M494.132629,713.416321 
	C494.909332,717.069458 495.167206,720.723755 495.223083,724.721191 
	C486.906799,725.064331 478.792511,725.064331 470.443787,725.064331 
	C470.443787,729.731934 470.443787,733.979736 470.443787,738.668823 
	C480.037079,738.668823 489.445831,738.668823 499.273499,738.668823 
	C499.273499,742.472351 499.273499,745.858093 499.273499,749.958679 
	C489.875580,749.958679 480.348114,749.958679 470.547852,749.958679 
	C470.547852,755.068604 470.547852,759.495178 470.547852,764.572388 
	C481.634125,764.572388 492.845062,764.572388 504.401825,764.572388 
	C504.401825,768.768921 504.401825,772.332092 504.401825,776.300354 
	C488.406647,776.300354 472.359924,776.300354 456.035400,776.300354 
	C456.035400,755.396973 456.035400,734.654480 456.035400,713.417419 
	C468.732910,713.417419 481.173340,713.417419 494.132629,713.416321 
z"/>
<path fill="#F5F4F3" opacity="1.000000" stroke="none" 
	d="
M883.111328,733.975586 
	C885.610168,728.307922 888.092529,723.043457 890.319824,717.673218 
	C891.637451,714.496216 893.666504,713.175354 897.158264,713.131470 
	C906.364258,713.015991 906.351074,712.891174 910.178467,721.427673 
	C918.264771,739.462952 926.364441,757.492126 934.767151,776.211121 
	C929.869507,776.211121 925.160034,776.424805 920.500244,776.038269 
	C919.519836,775.956909 918.425354,773.785217 917.888367,772.383301 
	C914.302307,763.020264 914.346863,763.015747 904.424744,763.084717 
	C899.097900,763.121765 893.764771,763.259521 888.446045,763.052673 
	C885.724609,762.946777 884.371460,763.715515 883.265320,766.369934 
	C878.869812,776.917908 878.748352,776.872498 867.282959,776.598389 
	C866.483643,776.579346 865.688171,776.402405 864.258484,776.216858 
	C870.605530,762.023376 876.796570,748.178833 883.111328,733.975586 
M898.960327,729.437805 
	C895.777344,736.759338 892.594360,744.080811 889.317383,751.618469 
	C896.488708,751.618469 902.664978,751.618469 909.514526,751.618469 
	C906.015625,743.672485 902.774597,736.312012 898.960327,729.437805 
z"/>
<path fill="#F3F4F0" opacity="1.000000" stroke="none" 
	d="
M535.221313,713.422852 
	C551.609314,713.417908 567.525940,713.417908 583.479614,713.417908 
	C583.479614,717.587585 583.479614,721.167847 583.479614,725.079956 
	C576.879211,725.079956 570.601196,725.079956 563.852661,725.079956 
	C563.852661,742.134888 563.852661,758.862427 563.852661,776.097351 
	C558.851440,776.339294 554.290039,776.559937 549.150024,776.808594 
	C549.150024,759.603516 549.150024,742.740417 549.150024,725.532104 
	C542.202576,725.532104 535.799866,725.532104 529.018799,725.532104 
	C529.018799,721.474609 529.018799,717.750244 529.018799,713.427795 
	C530.918152,713.427795 532.833984,713.427795 535.221313,713.422852 
z"/>
<path fill="#C3090A" opacity="1.000000" stroke="none" 
	d="
M687.647949,522.454285 
	C684.716553,528.784912 681.785095,535.115601 678.592896,541.614502 
	C677.761658,540.167358 676.687988,538.549988 676.694275,536.936829 
	C676.836731,500.316864 677.134827,463.697571 677.281250,427.077637 
	C677.296936,423.157257 679.034119,421.615479 682.650330,421.597839 
	C689.476990,421.564545 696.307068,421.419830 703.129150,421.588684 
	C706.966248,421.683594 708.561279,420.290436 708.449707,416.362518 
	C708.265259,409.874329 708.573669,403.371796 708.375671,396.884399 
	C708.253174,392.870697 710.349487,391.507874 713.811768,391.402161 
	C717.628967,391.285583 717.352539,394.149261 717.364258,396.649445 
	C717.395325,403.309570 717.533203,409.976074 717.293091,416.627960 
	C717.156433,420.412628 718.632507,421.643921 722.252441,421.463531 
	C726.067810,421.273376 729.904480,421.508881 734.139648,421.694519 
	C733.378479,424.413239 732.209412,426.995819 730.296692,429.756622 
	C716.576416,429.944214 703.599243,430.025360 690.623718,429.913666 
	C687.288147,429.885010 685.831177,430.868134 685.837891,434.448029 
	C685.889709,462.231567 685.770386,490.015472 685.836609,517.798950 
	C685.840332,519.352173 687.017151,520.902588 687.647949,522.454285 
M710.577087,419.705597 
	C710.026001,423.191986 707.917603,424.148682 704.543152,424.032196 
	C698.051331,423.808105 691.538269,424.167053 685.049561,423.902100 
	C681.190186,423.744507 679.870300,424.860596 679.891479,428.921539 
	C680.055847,460.418884 679.984070,491.917419 680.014221,523.415588 
	C680.015442,524.743469 680.301147,526.071106 680.579346,528.483032 
	C681.461670,526.980103 681.860046,526.609680 681.883484,526.216858 
	C682.607300,514.131714 683.678711,502.051300 683.897949,489.955719 
	C684.239136,471.129578 684.086487,452.292145 683.932983,433.461212 
	C683.899414,429.338837 685.265747,427.872681 689.420593,427.940430 
	C701.249939,428.133209 713.085815,428.070404 724.916138,427.899658 
	C726.664368,427.874420 728.396240,426.719482 730.135681,426.087219 
	C729.946716,425.376984 729.757751,424.666748 729.568787,423.956512 
	C726.312134,423.956512 723.048889,424.087128 719.800537,423.923035 
	C715.864929,423.724243 713.821350,421.068481 714.111145,417.328796 
	C714.520752,412.042511 714.901367,406.738922 714.901062,401.442749 
	C714.900940,399.040680 713.955811,396.638702 713.439392,394.236694 
	C712.714355,394.295715 711.989258,394.354736 711.264221,394.413788 
	C711.120422,402.562744 710.976624,410.711731 710.577087,419.705597 
z"/>
<path fill="#F3F4F0" opacity="1.000000" stroke="none" 
	d="
M884.000000,837.982361 
	C858.868164,837.982361 834.236328,837.982361 809.151978,837.982361 
	C809.004089,836.320618 808.881165,834.938965 808.731262,833.254211 
	C855.650391,833.254211 902.176758,833.254211 948.802917,833.254211 
	C950.364685,836.849365 949.127380,837.939148 945.433411,837.926086 
	C925.122559,837.854065 904.811218,837.946411 884.000000,837.982361 
z"/>
<path fill="#F3F4F0" opacity="1.000000" stroke="none" 
	d="
M415.000000,833.018921 
	C434.956146,833.019165 454.412292,833.019165 474.058533,833.019165 
	C474.058533,834.805725 474.058533,836.197876 474.058533,837.785645 
	C427.279572,837.785645 380.846344,837.785645 334.075500,837.785645 
	C334.075500,836.263611 334.075500,834.861389 334.075500,833.018677 
	C360.970947,833.018677 387.735474,833.018677 415.000000,833.018921 
z"/>
<path fill="#F3F4F0" opacity="1.000000" stroke="none" 
	d="
M589.789551,845.923828 
	C586.245911,841.163757 577.446411,841.460327 574.523499,845.771118 
	C573.530640,847.235474 571.269836,847.840271 569.588440,848.837891 
	C569.093506,848.347168 568.598633,847.856445 568.103699,847.365723 
	C570.340759,842.304626 572.548889,837.230408 574.826538,832.187622 
	C576.056030,829.465332 577.164917,826.643982 578.759827,824.142578 
	C580.743958,821.030823 584.536438,820.846252 586.037903,823.926880 
	C589.796082,831.638000 593.116821,839.562195 596.613098,847.400940 
	C596.258728,847.846191 595.904297,848.291504 595.549866,848.736755 
	C593.681885,847.916016 591.813904,847.095215 589.789551,845.923828 
M583.020996,829.817261 
	C582.921021,829.684509 582.841370,829.524963 582.714050,829.428345 
	C582.626465,829.361938 582.382080,829.333618 582.361450,829.371643 
	C580.934937,832.002441 579.524048,834.641785 577.838501,837.790894 
	C581.211914,837.790894 583.556763,837.790894 586.093750,837.790894 
	C585.068237,835.107056 584.187134,832.801025 583.020996,829.817261 
z"/>
<path fill="#F3F4F0" opacity="1.000000" stroke="none" 
	d="
M717.699768,840.136353 
	C718.710205,842.774048 719.580872,845.063416 720.578247,847.685974 
	C717.261841,848.665405 715.105896,848.374878 713.288513,845.326111 
	C710.651245,840.901917 701.622925,841.470703 698.879272,845.640625 
	C697.867371,847.178528 695.374573,847.741882 693.557251,848.749756 
	C693.088562,848.209534 692.619873,847.669373 692.151123,847.129150 
	C695.827026,839.250977 699.302307,831.269348 703.282349,823.547974 
	C704.774109,820.653931 708.697510,821.276917 710.351318,824.519775 
	C712.906982,829.531189 715.171753,834.691040 717.699768,840.136353 
M707.514160,830.927551 
	C707.081848,830.212830 706.649536,829.498108 705.930176,828.308899 
	C704.588806,831.818604 703.513489,834.632080 702.273865,837.875610 
	C705.234009,838.012756 707.616089,838.123169 710.702454,838.266174 
	C709.498047,835.552185 708.639893,833.618469 707.514160,830.927551 
z"/>
<path fill="#F3F4F0" opacity="1.000000" stroke="none" 
	d="
M613.698120,845.331421 
	C612.220581,846.853149 610.738281,847.945618 609.255920,849.038086 
	C608.877625,848.661316 608.499268,848.284546 608.120972,847.907776 
	C608.120972,839.511902 608.120972,831.116028 608.120972,821.838806 
	C612.986328,822.133118 617.880676,822.175598 622.701416,822.792542 
	C627.480103,823.404114 629.918335,826.546387 630.043152,831.365967 
	C630.160461,835.896912 627.269897,839.541687 622.490112,840.452698 
	C619.911621,840.944153 617.215759,840.820435 613.929871,841.011658 
	C613.861389,842.137329 613.777344,843.519714 613.698120,845.331421 
M622.978577,834.613342 
	C622.787781,832.353821 623.343872,828.720215 622.248535,828.124878 
	C620.058594,826.934509 615.593384,826.248291 614.562256,827.466064 
	C612.995789,829.316101 613.553162,832.964355 613.088013,836.855713 
	C617.039062,836.152649 619.709961,835.677307 622.978577,834.613342 
z"/>
<path fill="#F3F4F0" opacity="1.000000" stroke="none" 
	d="
M556.489136,845.552734 
	C549.263733,850.253052 540.750610,849.177124 536.603027,843.333252 
	C532.238098,837.183105 533.217529,829.013977 538.858154,824.524963 
	C543.379822,820.926453 551.914551,820.663635 556.138000,824.251892 
	C556.993225,824.978516 557.009155,826.692932 557.411987,827.951965 
	C556.256470,828.183105 555.097107,828.601807 553.946838,828.578430 
	C553.197449,828.563110 552.483521,827.848694 551.715271,827.544556 
	C547.864075,826.020691 543.998840,825.882202 541.298096,829.391724 
	C538.776184,832.668945 538.640930,836.669922 541.040466,840.102051 
	C543.658264,843.846313 547.517883,844.411621 551.709473,842.848022 
	C552.329651,842.616699 552.882324,842.128723 553.512207,842.015198 
	C554.676880,841.805298 555.875671,841.784790 557.060242,841.685425 
	C556.954834,842.887329 556.849426,844.089172 556.489136,845.552734 
z"/>
<path fill="#F3F4F0" opacity="1.000000" stroke="none" 
	d="
M669.274414,836.993713 
	C669.279480,833.535278 669.279480,830.564026 669.279480,827.153320 
	C666.430298,827.013855 664.015869,826.895630 661.181458,826.756897 
	C661.085938,825.296692 660.995056,823.906738 660.900269,822.457214 
	C661.738220,822.277405 662.196716,822.094482 662.655579,822.093445 
	C668.487427,822.080078 674.326172,821.943726 680.146057,822.210510 
	C681.491333,822.272156 682.772339,823.735291 684.082947,824.553589 
	C682.845154,825.339172 681.696411,826.430237 680.344421,826.824463 
	C678.997925,827.217041 677.447449,826.910339 675.542480,826.910339 
	C675.542480,834.015320 675.542480,840.759460 675.542480,847.821289 
	C673.365356,847.821289 671.630493,847.821289 669.269348,847.821289 
	C669.269348,844.343994 669.269348,840.912476 669.274414,836.993713 
z"/>
<path fill="#F3F4F0" opacity="1.000000" stroke="none" 
	d="
M737.569458,834.019897 
	C737.548828,837.155457 737.548828,839.795166 737.548828,842.917358 
	C741.864929,843.134644 746.105286,843.348145 752.036011,843.646729 
	C750.471558,845.640442 749.614502,847.754761 748.632385,847.814514 
	C743.217834,848.144104 737.772766,847.972046 731.992432,847.972046 
	C731.992432,839.377197 731.992432,831.139526 731.992432,822.341675 
	C733.553955,822.234619 735.258301,822.117798 737.590149,821.957886 
	C737.590149,826.071350 737.590149,829.797791 737.569458,834.019897 
z"/>
<path fill="#F3F4F0" opacity="1.000000" stroke="none" 
	d="
M649.527832,835.975281 
	C649.512146,840.114136 649.512146,843.762878 649.512146,847.773193 
	C647.586121,847.773193 645.866333,847.773193 643.842773,847.773193 
	C643.842773,839.473022 643.842773,831.208923 643.842773,822.501709 
	C645.615234,822.501709 647.454102,822.501709 649.543518,822.501709 
	C649.543518,826.917480 649.543518,831.201294 649.527832,835.975281 
z"/>
<path fill="#F3F4F0" opacity="1.000000" stroke="none" 
	d="
M564.170532,384.839233 
	C562.677734,385.008026 560.918274,385.030640 558.869873,385.013062 
	C560.355286,384.879639 562.129517,384.786377 564.170532,384.839233 
z"/>
<path fill="#F3F4F0" opacity="1.000000" stroke="none" 
	d="
M530.667480,383.937317 
	C529.188171,384.245789 527.390625,384.448517 525.328003,384.412292 
	C526.824951,384.059418 528.587097,383.945496 530.667480,383.937317 
z"/>
<path fill="#050101" opacity="1.000000" stroke="none" 
	d="
M525.066162,640.973328 
	C525.429260,656.044800 525.214722,671.026367 525.354004,686.004639 
	C525.393311,690.238525 523.911438,691.363464 519.857910,691.314941 
	C505.877167,691.147400 491.889923,691.189819 477.910583,691.447327 
	C473.771881,691.523499 472.477478,690.227661 472.484467,686.068726 
	C472.619690,605.694275 472.666107,525.319580 472.565308,444.945160 
	C472.559479,440.304321 474.209900,439.450592 478.384735,439.535095 
	C490.518036,439.780579 502.660156,439.648895 514.797974,439.556915 
	C516.932251,439.540741 519.062500,439.001190 521.611328,438.615723 
	C522.001526,504.018768 521.964478,569.509460 521.993713,635.000122 
	C521.994690,637.203491 520.691589,640.303345 525.066162,640.973328 
z"/>
<path fill="#070101" opacity="1.000000" stroke="none" 
	d="
M737.951782,526.041870 
	C738.471130,527.484131 739.046509,529.243225 739.050171,531.003540 
	C739.154114,581.759216 739.163574,632.515015 739.327393,683.270386 
	C739.340576,687.339539 737.839539,688.324280 734.035095,688.275818 
	C719.726135,688.093689 705.411560,688.074097 691.103455,688.288025 
	C687.001160,688.349365 685.640015,687.159546 685.684998,682.949707 
	C685.870117,665.645569 685.719116,648.337769 685.623291,630.584839 
	C701.722900,597.902344 717.888550,565.665100 734.063477,533.432556 
	C735.255249,531.057617 736.513794,528.716248 737.951782,526.041870 
z"/>
<path fill="#F3F4F0" opacity="1.000000" stroke="none" 
	d="
M579.881470,509.116394 
	C577.220825,505.089294 574.602356,500.624939 571.983826,496.160553 
	C571.638916,496.246002 571.293945,496.331421 570.949036,496.416870 
	C570.949036,500.653503 570.949036,504.890106 570.822388,509.563965 
	C570.129944,508.454132 569.388123,506.945099 569.043335,505.350250 
	C568.619141,503.387817 568.525879,501.353851 568.289612,499.350800 
	C567.786499,499.237122 567.283386,499.123444 566.780273,499.009766 
	C565.911072,500.392578 564.328369,501.754272 564.286804,503.161530 
	C563.986206,513.330322 564.294067,523.522034 563.825195,533.679565 
	C563.367859,543.585876 562.072571,553.450806 561.424072,563.352112 
	C561.016907,569.569214 561.135803,575.820374 560.990967,582.055603 
	C560.957703,583.491089 560.811035,584.924011 560.680908,586.899170 
	C559.641174,586.354980 558.737305,586.167053 558.654236,585.795593 
	C557.475159,580.520386 554.005493,577.120972 550.335815,573.312317 
	C546.616760,569.452454 543.070740,566.285767 537.918823,564.856445 
	C537.126343,564.636597 536.228577,563.348145 536.090576,562.445251 
	C534.968811,555.104065 533.742004,547.760620 533.107544,540.369690 
	C532.674438,535.325012 533.216858,530.202698 533.190247,525.115845 
	C533.106079,509.034668 532.981750,492.953583 532.815552,476.873047 
	C532.786682,474.075562 532.663818,471.253998 532.260437,468.490845 
	C531.490479,463.216827 534.677734,457.821228 539.842896,457.350922 
	C545.095764,456.872681 550.802002,455.223663 555.204651,460.374023 
	C556.114502,461.438446 558.196960,461.573578 559.782043,461.960419 
	C560.733582,462.192596 562.153992,461.671539 562.706848,462.189758 
	C568.517822,467.636566 574.040161,465.463837 579.753662,461.985870 
	C582.940125,460.046234 586.005432,461.135925 588.228577,463.816254 
	C590.976318,467.129272 594.188110,467.754425 598.966675,465.839081 
	C602.721863,473.955353 606.554565,481.932770 610.017029,490.067780 
	C610.511536,491.229553 609.703430,493.924561 608.657898,494.590363 
	C604.550232,497.205994 600.558289,500.170959 594.886536,498.687958 
	C592.938782,498.178680 590.321228,500.231476 587.078247,501.469269 
	C586.085449,500.363647 584.700745,498.265625 582.799988,496.871094 
	C581.113220,495.633606 578.853271,495.177246 576.846375,494.376068 
	C576.972656,496.189392 576.864136,498.058350 577.277588,499.803650 
	C577.988098,502.802765 579.024231,505.724731 579.881470,509.116394 
z"/>
<path fill="#070101" opacity="1.000000" stroke="none" 
	d="
M687.856079,522.111145 
	C687.017151,520.902588 685.840332,519.352173 685.836609,517.798950 
	C685.770386,490.015472 685.889709,462.231567 685.837891,434.448029 
	C685.831177,430.868134 687.288147,429.885010 690.623718,429.913666 
	C703.599243,430.025360 716.576416,429.944214 730.059204,429.964966 
	C720.274048,452.316498 709.996460,474.644226 699.684204,496.955902 
	C695.852600,505.245941 691.939941,513.498413 687.856079,522.111145 
z"/>
<path fill="#F3F4F0" opacity="1.000000" stroke="none" 
	d="
M570.241333,545.136719 
	C570.685913,557.696655 570.774536,570.398438 570.731445,583.552734 
	C570.068481,583.102844 569.082642,582.204224 569.075073,581.297485 
	C568.979736,569.858643 569.013306,558.418640 569.071289,546.979187 
	C569.074219,546.410950 569.601990,545.845398 570.241333,545.136719 
z"/>
<path fill="#F3F4F0" opacity="1.000000" stroke="none" 
	d="
M576.015503,396.385437 
	C578.206177,400.102600 580.387268,404.207611 582.594116,408.660339 
	C580.415161,404.929840 578.210510,400.851562 576.015503,396.385437 
z"/>
<path fill="#F3F4F0" opacity="1.000000" stroke="none" 
	d="
M606.044556,457.296143 
	C607.693237,460.030151 609.326050,463.148773 610.973877,466.632568 
	C609.335449,463.892090 607.682068,460.786438 606.044556,457.296143 
z"/>
<path fill="#F3F4F0" opacity="1.000000" stroke="none" 
	d="
M631.061829,508.266479 
	C632.737915,511.015137 634.390259,514.146851 636.077881,517.649780 
	C634.421448,514.897156 632.729736,511.773346 631.061829,508.266479 
z"/>
<path fill="#F3F4F0" opacity="1.000000" stroke="none" 
	d="
M570.301880,601.105835 
	C570.723633,602.717224 570.817383,604.438538 570.808594,606.581238 
	C570.461914,605.073669 570.217896,603.144714 570.301880,601.105835 
z"/>
<path fill="#F3F4F0" opacity="1.000000" stroke="none" 
	d="
M602.963562,451.482117 
	C603.975830,452.838043 605.007507,454.549133 606.066040,456.612549 
	C605.056274,455.255676 604.019592,453.546478 602.963562,451.482117 
z"/>
<path fill="#F3F4F0" opacity="1.000000" stroke="none" 
	d="
M636.183350,518.709351 
	C637.156494,519.975220 638.084229,521.630859 639.027222,523.646362 
	C638.074219,522.370544 637.106079,520.734863 636.183350,518.709351 
z"/>
<path fill="#F3F4F0" opacity="1.000000" stroke="none" 
	d="
M639.156128,524.743286 
	C640.055725,525.793823 640.920044,527.205994 641.833374,528.974365 
	C640.961914,527.921997 640.041382,526.513367 639.156128,524.743286 
z"/>
<path fill="#F3F4F0" opacity="1.000000" stroke="none" 
	d="
M570.338745,537.082397 
	C570.724792,538.073730 570.806702,539.152100 570.754517,540.617798 
	C570.425110,539.726562 570.229797,538.447937 570.338745,537.082397 
z"/>
<path fill="#F3F4F0" opacity="1.000000" stroke="none" 
	d="
M583.886841,517.088989 
	C583.143005,516.320374 582.439270,515.122498 581.706665,513.579041 
	C582.427490,514.375549 583.177246,515.517700 583.886841,517.088989 
z"/>
<path fill="#F3F4F0" opacity="1.000000" stroke="none" 
	d="
M629.043091,504.211914 
	C629.736267,504.988098 630.412415,506.128937 631.109009,507.609894 
	C630.428284,506.825531 629.727173,505.701019 629.043091,504.211914 
z"/>
<path fill="#F3F4F0" opacity="1.000000" stroke="none" 
	d="
M624.074585,494.111694 
	C624.784180,494.931915 625.466492,496.130768 626.175049,497.682922 
	C625.483337,496.854248 624.765259,495.672272 624.074585,494.111694 
z"/>
<path fill="#F3F4F0" opacity="1.000000" stroke="none" 
	d="
M586.133545,416.864502 
	C586.843384,417.754608 587.529480,419.022736 588.165161,420.656799 
	C587.446411,419.762665 586.778137,418.502594 586.133545,416.864502 
z"/>
<path fill="#F3F4F0" opacity="1.000000" stroke="none" 
	d="
M611.142212,467.797668 
	C611.764404,468.390167 612.354980,469.346558 612.945435,470.646667 
	C612.333679,470.047455 611.722107,469.104492 611.142212,467.797668 
z"/>
<path fill="#F3F4F0" opacity="1.000000" stroke="none" 
	d="
M530.685181,640.475830 
	C529.583008,640.737610 528.218933,640.803772 526.455322,640.775513 
	C527.511597,640.547424 528.967468,640.413879 530.685181,640.475830 
z"/>
<path fill="#F3F4F0" opacity="1.000000" stroke="none" 
	d="
M614.142395,473.782776 
	C614.753723,474.387421 615.332214,475.357666 615.921753,476.671265 
	C615.325073,476.059204 614.717285,475.103790 614.142395,473.782776 
z"/>
<path fill="#F3F4F0" opacity="1.000000" stroke="none" 
	d="
M581.815308,512.901001 
	C581.165466,512.396423 580.589783,511.523590 580.019470,510.326294 
	C580.646362,510.845459 581.267883,511.689056 581.815308,512.901001 
z"/>
<path fill="#F3F4F0" opacity="1.000000" stroke="none" 
	d="
M627.060669,500.230469 
	C627.635376,500.723053 628.183105,501.557770 628.726868,502.698242 
	C628.159851,502.193573 627.596863,501.383057 627.060669,500.230469 
z"/>
<path fill="#F3F4F0" opacity="1.000000" stroke="none" 
	d="
M584.127930,412.807861 
	C584.749512,413.380554 585.330261,414.349213 585.922119,415.658997 
	C585.317932,415.068024 584.702576,414.135895 584.127930,412.807861 
z"/>
<path fill="#F3F4F0" opacity="1.000000" stroke="none" 
	d="
M570.353149,586.050049 
	C570.684326,586.446594 570.765442,586.898804 570.722412,587.678467 
	C570.433167,587.372498 570.268066,586.739075 570.353149,586.050049 
z"/>
<path fill="#F3F4F0" opacity="1.000000" stroke="none" 
	d="
M587.002686,522.934448 
	C586.392212,522.644409 586.044617,522.180603 585.696167,521.414978 
	C586.218750,521.662354 586.742126,522.211487 587.002686,522.934448 
z"/>
<path fill="#F3F4F0" opacity="1.000000" stroke="none" 
	d="
M522.679077,436.660583 
	C522.456299,436.174805 522.369080,435.479065 522.384033,434.442200 
	C522.595703,434.884247 522.705200,435.667450 522.679077,436.660583 
z"/>
<path fill="#F3F4F0" opacity="1.000000" stroke="none" 
	d="
M619.125793,483.946228 
	C619.504517,484.137360 619.868042,484.688843 620.258484,485.578674 
	C619.893799,485.380157 619.502197,484.843353 619.125793,483.946228 
z"/>
<path fill="#F3F4F0" opacity="1.000000" stroke="none" 
	d="
M575.183228,395.430298 
	C575.304382,395.392822 575.531494,395.522736 575.870789,395.815735 
	C575.711182,395.925476 575.479919,395.798401 575.183228,395.430298 
z"/>
<path fill="#F3F4F0" opacity="1.000000" stroke="none" 
	d="
M583.186157,410.721710 
	C583.424988,410.722321 583.698425,411.038483 583.985596,411.676697 
	C583.739807,411.678253 583.480286,411.357788 583.186157,410.721710 
z"/>
<path fill="#F3F4F0" opacity="1.000000" stroke="none" 
	d="
M622.148804,489.900543 
	C622.359192,489.900269 622.597656,490.159912 622.821167,490.693726 
	C622.596375,490.698700 622.386658,490.429565 622.148804,489.900543 
z"/>
<path fill="#F3F4F0" opacity="1.000000" stroke="none" 
	d="
M598.098755,441.969788 
	C598.301086,441.942932 598.448792,442.185974 598.573486,442.680359 
	C598.373596,442.717102 598.204895,442.486420 598.098755,441.969788 
z"/>
<path fill="#F3F4F0" opacity="1.000000" stroke="none" 
	d="
M602.089722,450.081390 
	C602.213013,450.105164 602.359558,450.380035 602.611938,450.859589 
	C602.472168,450.865387 602.270508,450.621460 602.089722,450.081390 
z"/>
<path fill="#F3F4F0" opacity="1.000000" stroke="none" 
	d="
M613.176514,471.778992 
	C613.407349,471.776123 613.676086,472.075836 613.960693,472.685120 
	C613.722473,472.690308 613.468384,472.385925 613.176514,471.778992 
z"/>
<path fill="#F3F4F0" opacity="1.000000" stroke="none" 
	d="
M584.833008,519.174805 
	C584.609497,519.176819 584.354736,518.893921 584.098633,518.316650 
	C584.332092,518.311462 584.566956,518.600708 584.833008,519.174805 
z"/>
<path fill="#F3F4F0" opacity="1.000000" stroke="none" 
	d="
M617.167786,479.779572 
	C617.385803,479.791107 617.632690,480.100983 617.884399,480.717224 
	C617.658325,480.708405 617.427490,480.393188 617.167786,479.779572 
z"/>
<path fill="#F3F4F0" opacity="1.000000" stroke="none" 
	d="
M626.235596,498.627014 
	C626.502686,498.619507 626.790833,498.951202 627.099243,499.620972 
	C626.831848,499.628143 626.544250,499.297180 626.235596,498.627014 
z"/>
<path fill="#F3F4F0" opacity="1.000000" stroke="none" 
	d="
M623.123901,491.988922 
	C623.320251,491.983612 623.553955,492.216675 623.774536,492.705139 
	C623.470459,492.790527 623.270447,492.546112 623.123901,491.988922 
z"/>
<path fill="#070101" opacity="1.000000" stroke="none" 
	d="
M826.264648,739.106323 
	C824.818726,744.512390 821.319580,746.871704 816.350220,747.054810 
	C811.569824,747.231018 806.777893,747.092957 801.555908,747.092957 
	C801.555908,740.064087 801.555908,733.046387 801.555908,724.766174 
	C807.784424,725.356689 814.214783,725.359131 820.335876,726.736267 
	C825.355713,727.865601 827.210693,732.675903 826.264648,739.106323 
z"/>
<path fill="#050101" opacity="1.000000" stroke="none" 
	d="
M732.860229,762.071716 
	C723.046997,767.070679 713.287903,765.689331 707.066467,758.659424 
	C701.147583,751.971436 700.420288,741.374084 705.346741,733.600891 
	C711.151001,724.442505 724.489746,721.998718 733.432373,728.455383 
	C742.749939,735.182861 744.505798,749.077332 737.112122,758.084167 
	C735.964722,759.481934 734.501770,760.620667 732.860229,762.071716 
z"/>
<path fill="#F10202" opacity="1.000000" stroke="none" 
	d="
M742.587280,694.978027 
	C735.463379,695.006836 728.799561,695.009338 722.135803,695.031799 
	C715.494324,695.054199 714.099243,696.528931 714.028564,703.346375 
	C714.002808,705.832214 713.792480,708.316223 713.666321,710.801025 
	C712.914368,710.813110 712.162476,710.825195 711.410522,710.837219 
	C711.266357,708.146545 711.018066,705.456665 710.998291,702.765076 
	C710.945435,695.565430 710.478210,695.050598 703.359253,695.038452 
	C696.862061,695.027405 690.363647,694.943420 683.868286,695.046448 
	C681.210083,695.088562 679.915405,694.351196 679.930786,691.404846 
	C680.026428,673.080017 679.992676,654.754456 680.028320,636.429199 
	C680.029480,635.819214 680.313904,635.209717 680.466309,634.599976 
	C680.952026,634.488831 681.437744,634.377686 681.923523,634.266479 
	C682.607971,637.146606 683.878479,640.026978 683.877014,642.906738 
	C683.869934,656.536682 683.458923,670.165833 683.322876,683.796570 
	C683.286926,687.394287 684.196899,690.140198 688.960205,690.078369 
	C704.450867,689.877380 719.945801,690.024536 735.439087,689.999451 
	C741.079285,689.990356 741.963501,689.049500 741.966431,683.163452 
	C741.982544,651.177246 741.980896,619.190979 741.985352,587.204773 
	C741.985657,585.326477 741.985474,583.448181 741.985474,581.569946 
	C742.697205,581.479065 743.408875,581.388245 744.120605,581.297363 
	C744.424011,583.292725 744.987427,585.287476 744.991699,587.283447 
	C745.054077,616.270874 744.993469,645.258606 745.089417,674.245850 
	C745.107483,679.708252 745.896667,685.170898 745.846924,690.628967 
	C745.833679,692.081177 744.029358,693.517029 742.587280,694.978027 
z"/>
<path fill="#070101" opacity="1.000000" stroke="none" 
	d="
M899.246948,729.194702 
	C902.774597,736.312012 906.015625,743.672485 909.514526,751.618469 
	C902.664978,751.618469 896.488708,751.618469 889.317383,751.618469 
	C892.594360,744.080811 895.777344,736.759338 899.246948,729.194702 
z"/>
<path fill="#F10202" opacity="1.000000" stroke="none" 
	d="
M710.704956,419.283142 
	C710.976624,410.711731 711.120422,402.562744 711.264221,394.413788 
	C711.989258,394.354736 712.714355,394.295715 713.439392,394.236694 
	C713.955811,396.638702 714.900940,399.040680 714.901062,401.442749 
	C714.901367,406.738922 714.520752,412.042511 714.111145,417.328796 
	C713.821350,421.068481 715.864929,423.724243 719.800537,423.923035 
	C723.048889,424.087128 726.312134,423.956512 729.568787,423.956512 
	C729.757751,424.666748 729.946716,425.376984 730.135681,426.087219 
	C728.396240,426.719482 726.664368,427.874420 724.916138,427.899658 
	C713.085815,428.070404 701.249939,428.133209 689.420593,427.940430 
	C685.265747,427.872681 683.899414,429.338837 683.932983,433.461212 
	C684.086487,452.292145 684.239136,471.129578 683.897949,489.955719 
	C683.678711,502.051300 682.607300,514.131714 681.883484,526.216858 
	C681.860046,526.609680 681.461670,526.980103 680.579346,528.483032 
	C680.301147,526.071106 680.015442,524.743469 680.014221,523.415588 
	C679.984070,491.917419 680.055847,460.418884 679.891479,428.921539 
	C679.870300,424.860596 681.190186,423.744507 685.049561,423.902100 
	C691.538269,424.167053 698.051331,423.808105 704.543152,424.032196 
	C707.917603,424.148682 710.026001,423.191986 710.704956,419.283142 
z"/>
<path fill="#070101" opacity="1.000000" stroke="none" 
	d="
M583.163513,830.156128 
	C584.187134,832.801025 585.068237,835.107056 586.093750,837.790894 
	C583.556763,837.790894 581.211914,837.790894 577.838501,837.790894 
	C579.524048,834.641785 580.934937,832.002441 582.361450,829.371643 
	C582.382080,829.333618 582.626465,829.361938 582.714050,829.428345 
	C582.841370,829.524963 582.921021,829.684509 583.163513,830.156128 
z"/>
<path fill="#070101" opacity="1.000000" stroke="none" 
	d="
M707.647949,831.306152 
	C708.639893,833.618469 709.498047,835.552185 710.702454,838.266174 
	C707.616089,838.123169 705.234009,838.012756 702.273865,837.875610 
	C703.513489,834.632080 704.588806,831.818604 705.930176,828.308899 
	C706.649536,829.498108 707.081848,830.212830 707.647949,831.306152 
z"/>
<path fill="#070101" opacity="1.000000" stroke="none" 
	d="
M622.679688,834.907715 
	C619.709961,835.677307 617.039062,836.152649 613.088013,836.855713 
	C613.553162,832.964355 612.995789,829.316101 614.562256,827.466064 
	C615.593384,826.248291 620.058594,826.934509 622.248535,828.124878 
	C623.343872,828.720215 622.787781,832.353821 622.679688,834.907715 
z"/>
</svg>